<?xml version="1.0" encoding="UTF-8" standalone="no"?>
<!DOCTYPE svg PUBLIC "-//W3C//DTD SVG 1.1//EN"
 "http://www.w3.org/Graphics/SVG/1.1/DTD/svg11.dtd">
<!-- Generated by graphviz version 2.36.0 (20140111.2315)
 -->
<!-- Title: controllers_diagram Pages: 1 -->
<svg width="1090pt" height="635pt"
 viewBox="0.00 0.00 1090.15 635.31" xmlns="http://www.w3.org/2000/svg" xmlns:xlink="http://www.w3.org/1999/xlink">
<g id="graph0" class="graph" transform="scale(1 1) rotate(0) translate(4 631.308)">
<title>controllers_diagram</title>
<polygon fill="white" stroke="none" points="-4,4 -4,-631.308 1086.15,-631.308 1086.15,4 -4,4"/>
<!-- _diagram_info -->
<g id="node1" class="node"><title>_diagram_info</title>
<text text-anchor="start" x="716" y="-58.6" font-family="Times,serif" font-size="13.00">Controllers diagram</text>
<text text-anchor="start" x="716" y="-45.6" font-family="Times,serif" font-size="13.00">Date: Jun 12 2014 &#45; 12:09</text>
<text text-anchor="start" x="716" y="-32.6" font-family="Times,serif" font-size="13.00">Migration version: 20140612092704</text>
<text text-anchor="start" x="716" y="-19.6" font-family="Times,serif" font-size="13.00">Generated by RailRoady 1.1.1</text>
<text text-anchor="start" x="716" y="-6.6" font-family="Times,serif" font-size="13.00">http://railroady.prestonlee.com</text>
</g>
<!-- ApplicationController -->
<g id="node2" class="node"><title>ApplicationController</title>
<ellipse fill="none" stroke="black" cx="555.846" cy="-444.583" rx="88.417" ry="18"/>
<text text-anchor="middle" x="555.846" y="-440.383" font-family="Times,serif" font-size="14.00">ApplicationController</text>
</g>
<!-- ErrorsController -->
<g id="node3" class="node"><title>ErrorsController</title>
<ellipse fill="none" stroke="black" cx="773.795" cy="-378.852" rx="68.6133" ry="18"/>
<text text-anchor="middle" x="773.795" y="-374.652" font-family="Times,serif" font-size="14.00">ErrorsController</text>
</g>
<!-- ApplicationController&#45;&gt;ErrorsController -->
<g id="edge1" class="edge"><title>ApplicationController&#45;&gt;ErrorsController</title>
<path fill="none" stroke="black" d="M605.302,-429.668C642.353,-418.494 692.643,-403.326 728.617,-392.477"/>
</g>
<!-- FinalpredictionsController -->
<g id="node4" class="node"><title>FinalpredictionsController</title>
<ellipse fill="none" stroke="black" cx="521.916" cy="-136" rx="103.861" ry="18"/>
<text text-anchor="middle" x="521.916" y="-131.8" font-family="Times,serif" font-size="14.00">FinalpredictionsController</text>
</g>
<!-- ApplicationController&#45;&gt;FinalpredictionsController -->
<g id="edge2" class="edge"><title>ApplicationController&#45;&gt;FinalpredictionsController</title>
<path fill="none" stroke="black" d="M552.12,-426.554C546.444,-398.343 535.728,-341.985 530.37,-293.65 524.784,-243.252 522.856,-183.365 522.217,-154.023"/>
</g>
<!-- GamesController -->
<g id="node5" class="node"><title>GamesController</title>
<ellipse fill="none" stroke="black" cx="328.801" cy="-566.139" rx="71.0272" ry="18"/>
<text text-anchor="middle" x="328.801" y="-561.939" font-family="Times,serif" font-size="14.00">GamesController</text>
</g>
<!-- ApplicationController&#45;&gt;GamesController -->
<g id="edge3" class="edge"><title>ApplicationController&#45;&gt;GamesController</title>
<path fill="none" stroke="black" d="M524.277,-461.485C480.655,-484.839 402.466,-526.7 359.377,-549.769"/>
</g>
<!-- KnockoutpredictionsController -->
<g id="node6" class="node"><title>KnockoutpredictionsController</title>
<ellipse fill="none" stroke="black" cx="724.658" cy="-588.358" rx="120.757" ry="18"/>
<text text-anchor="middle" x="724.658" y="-584.158" font-family="Times,serif" font-size="14.00">KnockoutpredictionsController</text>
</g>
<!-- ApplicationController&#45;&gt;KnockoutpredictionsController -->
<g id="edge4" class="edge"><title>ApplicationController&#45;&gt;KnockoutpredictionsController</title>
<path fill="none" stroke="black" d="M576.546,-462.213C608.945,-489.807 671.285,-542.901 703.789,-570.584"/>
</g>
<!-- PagesController -->
<g id="node7" class="node"><title>PagesController</title>
<ellipse fill="none" stroke="black" cx="106.061" cy="-580.393" rx="67.177" ry="18"/>
<text text-anchor="middle" x="106.061" y="-576.193" font-family="Times,serif" font-size="14.00">PagesController</text>
</g>
<!-- ApplicationController&#45;&gt;PagesController -->
<g id="edge5" class="edge"><title>ApplicationController&#45;&gt;PagesController</title>
<path fill="none" stroke="black" d="M506.425,-459.506C418.337,-486.103 235.512,-541.306 150.863,-566.865"/>
</g>
<!-- PasswordResetsController -->
<g id="node8" class="node"><title>PasswordResetsController</title>
<ellipse fill="none" stroke="black" cx="103.447" cy="-158.254" rx="103.394" ry="18"/>
<text text-anchor="middle" x="103.447" y="-154.054" font-family="Times,serif" font-size="14.00">PasswordResetsController</text>
</g>
<!-- ApplicationController&#45;&gt;PasswordResetsController -->
<g id="edge6" class="edge"><title>ApplicationController&#45;&gt;PasswordResetsController</title>
<path fill="none" stroke="black" d="M547.957,-426.544C538.163,-405.887 519.726,-372.108 495.348,-350.385 391.959,-258.259 236.467,-199.753 155.948,-173.815"/>
</g>
<!-- PoolmembershipsController -->
<g id="node9" class="node"><title>PoolmembershipsController</title>
<ellipse fill="none" stroke="black" cx="972.314" cy="-153.731" rx="109.667" ry="18"/>
<text text-anchor="middle" x="972.314" y="-149.531" font-family="Times,serif" font-size="14.00">PoolmembershipsController</text>
</g>
<!-- ApplicationController&#45;&gt;PoolmembershipsController -->
<g id="edge7" class="edge"><title>ApplicationController&#45;&gt;PoolmembershipsController</title>
<path fill="none" stroke="black" d="M580.651,-427.26C654.549,-375.651 872.702,-223.298 947.113,-171.331"/>
</g>
<!-- PoolsController -->
<g id="node10" class="node"><title>PoolsController</title>
<ellipse fill="none" stroke="black" cx="326" cy="-153.365" rx="66.234" ry="18"/>
<text text-anchor="middle" x="326" y="-149.165" font-family="Times,serif" font-size="14.00">PoolsController</text>
</g>
<!-- ApplicationController&#45;&gt;PoolsController -->
<g id="edge8" class="edge"><title>ApplicationController&#45;&gt;PoolsController</title>
<path fill="none" stroke="black" d="M545.19,-426.378C533.629,-407.03 514.279,-375.787 495.348,-350.385 443.464,-280.767 373.853,-204.446 342.512,-170.868"/>
</g>
<!-- PredictionsController -->
<g id="node11" class="node"><title>PredictionsController</title>
<ellipse fill="none" stroke="black" cx="739.21" cy="-148.126" rx="86.4964" ry="18"/>
<text text-anchor="middle" x="739.21" y="-143.926" font-family="Times,serif" font-size="14.00">PredictionsController</text>
</g>
<!-- ApplicationController&#45;&gt;PredictionsController -->
<g id="edge9" class="edge"><title>ApplicationController&#45;&gt;PredictionsController</title>
<path fill="none" stroke="black" d="M570.574,-426.75C592.902,-399.26 635.972,-344.418 666.758,-293.968 693.708,-249.804 719.151,-194.255 731.47,-166.166"/>
</g>
<!-- QuarterpredictionsController -->
<g id="node12" class="node"><title>QuarterpredictionsController</title>
<ellipse fill="none" stroke="black" cx="380.991" cy="-350.323" rx="112.514" ry="18"/>
<text text-anchor="middle" x="380.991" y="-346.123" font-family="Times,serif" font-size="14.00">QuarterpredictionsController</text>
</g>
<!-- ApplicationController&#45;&gt;QuarterpredictionsController -->
<g id="edge10" class="edge"><title>ApplicationController&#45;&gt;QuarterpredictionsController</title>
<path fill="none" stroke="black" d="M524.586,-427.731C493.152,-410.786 444.919,-384.785 413.164,-367.667"/>
</g>
<!-- SemipredictionsController -->
<g id="node13" class="node"><title>SemipredictionsController</title>
<ellipse fill="none" stroke="black" cx="131.543" cy="-369.242" rx="103.861" ry="18"/>
<text text-anchor="middle" x="131.543" y="-365.042" font-family="Times,serif" font-size="14.00">SemipredictionsController</text>
</g>
<!-- ApplicationController&#45;&gt;SemipredictionsController -->
<g id="edge11" class="edge"><title>ApplicationController&#45;&gt;SemipredictionsController</title>
<path fill="none" stroke="black" d="M489.082,-432.728C411.601,-418.97 284.268,-396.36 204.314,-382.163"/>
</g>
<!-- SessionsController -->
<g id="node14" class="node"><title>SessionsController</title>
<ellipse fill="none" stroke="black" cx="992.092" cy="-368.98" rx="76.8502" ry="18"/>
<text text-anchor="middle" x="992.092" y="-364.78" font-family="Times,serif" font-size="14.00">SessionsController</text>
</g>
<!-- ApplicationController&#45;&gt;SessionsController -->
<g id="edge12" class="edge"><title>ApplicationController&#45;&gt;SessionsController</title>
<path fill="none" stroke="black" d="M623.531,-432.853C707.414,-418.316 849.171,-393.749 930.253,-379.697"/>
</g>
<!-- TeampredictionsController -->
<g id="node15" class="node"><title>TeampredictionsController</title>
<ellipse fill="none" stroke="black" cx="967.724" cy="-584.267" rx="105.03" ry="18"/>
<text text-anchor="middle" x="967.724" y="-580.067" font-family="Times,serif" font-size="14.00">TeampredictionsController</text>
</g>
<!-- ApplicationController&#45;&gt;TeampredictionsController -->
<g id="edge13" class="edge"><title>ApplicationController&#45;&gt;TeampredictionsController</title>
<path fill="none" stroke="black" d="M601.498,-460.065C680.146,-486.738 840.416,-541.092 920.283,-568.178"/>
</g>
<!-- TeamsController -->
<g id="node16" class="node"><title>TeamsController</title>
<ellipse fill="none" stroke="black" cx="515.167" cy="-609.308" rx="69.3233" ry="18"/>
<text text-anchor="middle" x="515.167" y="-605.108" font-family="Times,serif" font-size="14.00">TeamsController</text>
</g>
<!-- ApplicationController&#45;&gt;TeamsController -->
<g id="edge14" class="edge"><title>ApplicationController&#45;&gt;TeamsController</title>
<path fill="none" stroke="black" d="M551.338,-462.841C543.497,-494.588 527.445,-559.591 519.634,-591.22"/>
</g>
<!-- UsersController -->
<g id="node17" class="node"><title>UsersController</title>
<ellipse fill="none" stroke="black" cx="598.564" cy="-293.809" rx="66.6925" ry="18"/>
<text text-anchor="middle" x="598.564" y="-289.609" font-family="Times,serif" font-size="14.00">UsersController</text>
</g>
<!-- ApplicationController&#45;&gt;UsersController -->
<g id="edge15" class="edge"><title>ApplicationController&#45;&gt;UsersController</title>
<path fill="none" stroke="black" d="M560.999,-426.396C569.21,-397.417 585.171,-341.08 593.393,-312.06"/>
</g>
</g>
</svg>
