<?xml version="1.0" encoding="UTF-8" standalone="no"?>
<!DOCTYPE svg PUBLIC "-//W3C//DTD SVG 1.1//EN"
 "http://www.w3.org/Graphics/SVG/1.1/DTD/svg11.dtd">
<!-- Generated by graphviz version 2.36.0 (20140111.2315)
 -->
<!-- Title: controllers_diagram Pages: 1 -->
<svg width="1199pt" height="1234pt"
 viewBox="0.00 0.00 1199.38 1234.38" xmlns="http://www.w3.org/2000/svg" xmlns:xlink="http://www.w3.org/1999/xlink">
<g id="graph0" class="graph" transform="scale(1 1) rotate(0) translate(4 1230.38)">
<title>controllers_diagram</title>
<polygon fill="white" stroke="none" points="-4,4 -4,-1230.38 1195.38,-1230.38 1195.38,4 -4,4"/>
<!-- _diagram_info -->
<g id="node1" class="node"><title>_diagram_info</title>
<text text-anchor="start" x="992" y="-222.6" font-family="Times,serif" font-size="13.00">Controllers diagram</text>
<text text-anchor="start" x="992" y="-209.6" font-family="Times,serif" font-size="13.00">Date: Jun 12 2014 &#45; 12:08</text>
<text text-anchor="start" x="992" y="-196.6" font-family="Times,serif" font-size="13.00">Migration version: 20140612092704</text>
<text text-anchor="start" x="992" y="-183.6" font-family="Times,serif" font-size="13.00">Generated by RailRoady 1.1.1</text>
<text text-anchor="start" x="992" y="-170.6" font-family="Times,serif" font-size="13.00">http://railroady.prestonlee.com</text>
</g>
<!-- ApplicationController -->
<g id="node2" class="node"><title>ApplicationController</title>
<path fill="none" stroke="black" d="M282.944,-557.685C282.944,-557.685 398.585,-557.685 398.585,-557.685 404.585,-557.685 410.585,-563.685 410.585,-569.685 410.585,-569.685 410.585,-677.685 410.585,-677.685 410.585,-683.685 404.585,-689.685 398.585,-689.685 398.585,-689.685 282.944,-689.685 282.944,-689.685 276.944,-689.685 270.944,-683.685 270.944,-677.685 270.944,-677.685 270.944,-569.685 270.944,-569.685 270.944,-563.685 276.944,-557.685 282.944,-557.685"/>
<text text-anchor="middle" x="340.764" y="-674.485" font-family="Times,serif" font-size="14.00">ApplicationController</text>
<polyline fill="none" stroke="black" points="270.944,-667.685 410.585,-667.685 "/>
<text text-anchor="start" x="278.944" y="-652.485" font-family="Times,serif" font-size="14.00">welcome</text>
<polyline fill="none" stroke="black" points="270.944,-645.685 410.585,-645.685 "/>
<polyline fill="none" stroke="black" points="270.944,-621.685 410.585,-621.685 "/>
<text text-anchor="start" x="278.944" y="-606.485" font-family="Times,serif" font-size="14.00">_layout</text>
<text text-anchor="start" x="278.944" y="-592.485" font-family="Times,serif" font-size="14.00">ensure_admin</text>
<text text-anchor="start" x="278.944" y="-578.485" font-family="Times,serif" font-size="14.00">ensure_user</text>
<text text-anchor="start" x="278.944" y="-564.485" font-family="Times,serif" font-size="14.00">second_user</text>
</g>
<!-- ErrorsController -->
<g id="node3" class="node"><title>ErrorsController</title>
<path fill="none" stroke="black" d="M534.691,-586.312C534.691,-586.312 619.222,-586.312 619.222,-586.312 625.222,-586.312 631.222,-592.312 631.222,-598.312 631.222,-598.312 631.222,-678.312 631.222,-678.312 631.222,-684.312 625.222,-690.312 619.222,-690.312 619.222,-690.312 534.691,-690.312 534.691,-690.312 528.691,-690.312 522.691,-684.312 522.691,-678.312 522.691,-678.312 522.691,-598.312 522.691,-598.312 522.691,-592.312 528.691,-586.312 534.691,-586.312"/>
<text text-anchor="middle" x="576.957" y="-675.112" font-family="Times,serif" font-size="14.00">ErrorsController</text>
<polyline fill="none" stroke="black" points="522.691,-668.312 631.222,-668.312 "/>
<text text-anchor="start" x="530.691" y="-653.112" font-family="Times,serif" font-size="14.00">error_404</text>
<text text-anchor="start" x="530.691" y="-639.112" font-family="Times,serif" font-size="14.00">error_500</text>
<polyline fill="none" stroke="black" points="522.691,-632.312 631.222,-632.312 "/>
<polyline fill="none" stroke="black" points="522.691,-608.312 631.222,-608.312 "/>
<text text-anchor="start" x="530.691" y="-593.112" font-family="Times,serif" font-size="14.00">_layout</text>
</g>
<!-- ApplicationController&#45;&gt;ErrorsController -->
<g id="edge1" class="edge"><title>ApplicationController&#45;&gt;ErrorsController</title>
<path fill="none" stroke="black" d="M410.671,-628.014C446.447,-630.229 489.345,-632.886 522.608,-634.946"/>
</g>
<!-- FinalpredictionsController -->
<g id="node4" class="node"><title>FinalpredictionsController</title>
<path fill="none" stroke="black" d="M383.528,-42.269C383.528,-42.269 524.059,-42.269 524.059,-42.269 530.059,-42.269 536.059,-48.269 536.059,-54.269 536.059,-54.269 536.059,-204.269 536.059,-204.269 536.059,-210.269 530.059,-216.269 524.059,-216.269 524.059,-216.269 383.528,-216.269 383.528,-216.269 377.528,-216.269 371.528,-210.269 371.528,-204.269 371.528,-204.269 371.528,-54.269 371.528,-54.269 371.528,-48.269 377.528,-42.269 383.528,-42.269"/>
<text text-anchor="middle" x="453.794" y="-201.069" font-family="Times,serif" font-size="14.00">FinalpredictionsController</text>
<polyline fill="none" stroke="black" points="371.528,-194.269 536.059,-194.269 "/>
<text text-anchor="start" x="379.528" y="-179.069" font-family="Times,serif" font-size="14.00">create</text>
<text text-anchor="start" x="379.528" y="-165.069" font-family="Times,serif" font-size="14.00">edit</text>
<text text-anchor="start" x="379.528" y="-151.069" font-family="Times,serif" font-size="14.00">finalteams</text>
<text text-anchor="start" x="379.528" y="-137.069" font-family="Times,serif" font-size="14.00">index</text>
<text text-anchor="start" x="379.528" y="-123.069" font-family="Times,serif" font-size="14.00">show</text>
<polyline fill="none" stroke="black" points="371.528,-116.269 536.059,-116.269 "/>
<polyline fill="none" stroke="black" points="371.528,-92.269 536.059,-92.269 "/>
<text text-anchor="start" x="379.528" y="-77.069" font-family="Times,serif" font-size="14.00">_layout</text>
<text text-anchor="start" x="379.528" y="-63.069" font-family="Times,serif" font-size="14.00">finalprediction_params</text>
<text text-anchor="start" x="379.528" y="-49.069" font-family="Times,serif" font-size="14.00">find_poolmembership</text>
</g>
<!-- ApplicationController&#45;&gt;FinalpredictionsController -->
<g id="edge2" class="edge"><title>ApplicationController&#45;&gt;FinalpredictionsController</title>
<path fill="none" stroke="black" d="M383.47,-557.422C397.364,-532.808 411.378,-504.057 419.866,-476.101 445.879,-390.421 453.154,-287.887 454.663,-216.624"/>
</g>
<!-- GamesController -->
<g id="node5" class="node"><title>GamesController</title>
<path fill="none" stroke="black" d="M69.8989,-991.57C69.8989,-991.57 158.32,-991.57 158.32,-991.57 164.32,-991.57 170.32,-997.57 170.32,-1003.57 170.32,-1003.57 170.32,-1181.57 170.32,-1181.57 170.32,-1187.57 164.32,-1193.57 158.32,-1193.57 158.32,-1193.57 69.8989,-1193.57 69.8989,-1193.57 63.8989,-1193.57 57.8989,-1187.57 57.8989,-1181.57 57.8989,-1181.57 57.8989,-1003.57 57.8989,-1003.57 57.8989,-997.57 63.8989,-991.57 69.8989,-991.57"/>
<text text-anchor="middle" x="114.109" y="-1178.37" font-family="Times,serif" font-size="14.00">GamesController</text>
<polyline fill="none" stroke="black" points="57.8989,-1171.57 170.32,-1171.57 "/>
<text text-anchor="start" x="65.8989" y="-1156.37" font-family="Times,serif" font-size="14.00">create</text>
<text text-anchor="start" x="65.8989" y="-1142.37" font-family="Times,serif" font-size="14.00">destroy</text>
<text text-anchor="start" x="65.8989" y="-1128.37" font-family="Times,serif" font-size="14.00">edit</text>
<text text-anchor="start" x="65.8989" y="-1114.37" font-family="Times,serif" font-size="14.00">index</text>
<text text-anchor="start" x="65.8989" y="-1100.37" font-family="Times,serif" font-size="14.00">show</text>
<text text-anchor="start" x="65.8989" y="-1086.37" font-family="Times,serif" font-size="14.00">toggle</text>
<text text-anchor="start" x="65.8989" y="-1072.37" font-family="Times,serif" font-size="14.00">update</text>
<polyline fill="none" stroke="black" points="57.8989,-1065.57 170.32,-1065.57 "/>
<polyline fill="none" stroke="black" points="57.8989,-1041.57 170.32,-1041.57 "/>
<text text-anchor="start" x="65.8989" y="-1026.37" font-family="Times,serif" font-size="14.00">_layout</text>
<text text-anchor="start" x="65.8989" y="-1012.37" font-family="Times,serif" font-size="14.00">game_params</text>
<text text-anchor="start" x="65.8989" y="-998.37" font-family="Times,serif" font-size="14.00">set_game</text>
</g>
<!-- ApplicationController&#45;&gt;GamesController -->
<g id="edge3" class="edge"><title>ApplicationController&#45;&gt;GamesController</title>
<path fill="none" stroke="black" d="M308.771,-689.87C270.821,-768.378 207.151,-900.092 163.01,-991.408"/>
</g>
<!-- KnockoutpredictionsController -->
<g id="node6" class="node"><title>KnockoutpredictionsController</title>
<path fill="none" stroke="black" d="M483.185,-761.844C483.185,-761.844 650.151,-761.844 650.151,-761.844 656.151,-761.844 662.151,-767.844 662.151,-773.844 662.151,-773.844 662.151,-965.844 662.151,-965.844 662.151,-971.844 656.151,-977.844 650.151,-977.844 650.151,-977.844 483.185,-977.844 483.185,-977.844 477.185,-977.844 471.185,-971.844 471.185,-965.844 471.185,-965.844 471.185,-773.844 471.185,-773.844 471.185,-767.844 477.185,-761.844 483.185,-761.844"/>
<text text-anchor="middle" x="566.668" y="-962.644" font-family="Times,serif" font-size="14.00">KnockoutpredictionsController</text>
<polyline fill="none" stroke="black" points="471.185,-955.844 662.151,-955.844 "/>
<text text-anchor="start" x="479.185" y="-940.644" font-family="Times,serif" font-size="14.00">create</text>
<text text-anchor="start" x="479.185" y="-926.644" font-family="Times,serif" font-size="14.00">edit</text>
<text text-anchor="start" x="479.185" y="-912.644" font-family="Times,serif" font-size="14.00">eightteams</text>
<text text-anchor="start" x="479.185" y="-898.644" font-family="Times,serif" font-size="14.00">finalteams</text>
<text text-anchor="start" x="479.185" y="-884.644" font-family="Times,serif" font-size="14.00">index</text>
<text text-anchor="start" x="479.185" y="-870.644" font-family="Times,serif" font-size="14.00">quarterteams</text>
<text text-anchor="start" x="479.185" y="-856.644" font-family="Times,serif" font-size="14.00">semiteams</text>
<text text-anchor="start" x="479.185" y="-842.644" font-family="Times,serif" font-size="14.00">show</text>
<polyline fill="none" stroke="black" points="471.185,-835.844 662.151,-835.844 "/>
<polyline fill="none" stroke="black" points="471.185,-811.844 662.151,-811.844 "/>
<text text-anchor="start" x="479.185" y="-796.644" font-family="Times,serif" font-size="14.00">_layout</text>
<text text-anchor="start" x="479.185" y="-782.644" font-family="Times,serif" font-size="14.00">find_poolmembership</text>
<text text-anchor="start" x="479.185" y="-768.644" font-family="Times,serif" font-size="14.00">knockoutprediction_params</text>
</g>
<!-- ApplicationController&#45;&gt;KnockoutpredictionsController -->
<g id="edge4" class="edge"><title>ApplicationController&#45;&gt;KnockoutpredictionsController</title>
<path fill="none" stroke="black" d="M401.599,-689.975C422.901,-713.186 447.369,-739.848 470.829,-765.412"/>
</g>
<!-- PagesController -->
<g id="node7" class="node"><title>PagesController</title>
<path fill="none" stroke="black" d="M284.446,-809.658C284.446,-809.658 366.653,-809.658 366.653,-809.658 372.653,-809.658 378.653,-815.658 378.653,-821.658 378.653,-821.658 378.653,-901.658 378.653,-901.658 378.653,-907.658 372.653,-913.658 366.653,-913.658 366.653,-913.658 284.446,-913.658 284.446,-913.658 278.446,-913.658 272.446,-907.658 272.446,-901.658 272.446,-901.658 272.446,-821.658 272.446,-821.658 272.446,-815.658 278.446,-809.658 284.446,-809.658"/>
<text text-anchor="middle" x="325.549" y="-898.458" font-family="Times,serif" font-size="14.00">PagesController</text>
<polyline fill="none" stroke="black" points="272.446,-891.658 378.653,-891.658 "/>
<text text-anchor="start" x="280.446" y="-876.458" font-family="Times,serif" font-size="14.00">home</text>
<text text-anchor="start" x="280.446" y="-862.458" font-family="Times,serif" font-size="14.00">speluitleg</text>
<polyline fill="none" stroke="black" points="272.446,-855.658 378.653,-855.658 "/>
<polyline fill="none" stroke="black" points="272.446,-831.658 378.653,-831.658 "/>
<text text-anchor="start" x="280.446" y="-816.458" font-family="Times,serif" font-size="14.00">_layout</text>
</g>
<!-- ApplicationController&#45;&gt;PagesController -->
<g id="edge5" class="edge"><title>ApplicationController&#45;&gt;PagesController</title>
<path fill="none" stroke="black" d="M336.526,-689.973C334.117,-727.656 331.142,-774.176 328.898,-809.282"/>
</g>
<!-- PasswordResetsController -->
<g id="node8" class="node"><title>PasswordResetsController</title>
<path fill="none" stroke="black" d="M12.9635,-404.843C12.9635,-404.843 152.729,-404.843 152.729,-404.843 158.729,-404.843 164.729,-410.843 164.729,-416.843 164.729,-416.843 164.729,-538.843 164.729,-538.843 164.729,-544.843 158.729,-550.843 152.729,-550.843 152.729,-550.843 12.9635,-550.843 12.9635,-550.843 6.9635,-550.843 0.963504,-544.843 0.963504,-538.843 0.963504,-538.843 0.963504,-416.843 0.963504,-416.843 0.963504,-410.843 6.9635,-404.843 12.9635,-404.843"/>
<text text-anchor="middle" x="82.8463" y="-535.643" font-family="Times,serif" font-size="14.00">PasswordResetsController</text>
<polyline fill="none" stroke="black" points="0.963504,-528.843 164.729,-528.843 "/>
<text text-anchor="start" x="8.9635" y="-513.643" font-family="Times,serif" font-size="14.00">create</text>
<text text-anchor="start" x="8.9635" y="-499.643" font-family="Times,serif" font-size="14.00">edit</text>
<text text-anchor="start" x="8.9635" y="-485.643" font-family="Times,serif" font-size="14.00">new</text>
<text text-anchor="start" x="8.9635" y="-471.643" font-family="Times,serif" font-size="14.00">update</text>
<polyline fill="none" stroke="black" points="0.963504,-464.843 164.729,-464.843 "/>
<polyline fill="none" stroke="black" points="0.963504,-440.843 164.729,-440.843 "/>
<text text-anchor="start" x="8.9635" y="-425.643" font-family="Times,serif" font-size="14.00">_layout</text>
<text text-anchor="start" x="8.9635" y="-411.643" font-family="Times,serif" font-size="14.00">password_reset_params</text>
</g>
<!-- ApplicationController&#45;&gt;PasswordResetsController -->
<g id="edge6" class="edge"><title>ApplicationController&#45;&gt;PasswordResetsController</title>
<path fill="none" stroke="black" d="M270.628,-584.025C237.96,-565.553 198.882,-543.457 164.855,-524.216"/>
</g>
<!-- PoolmembershipsController -->
<g id="node9" class="node"><title>PoolmembershipsController</title>
<path fill="none" stroke="black" d="M742.935,-421.311C742.935,-421.311 892.811,-421.311 892.811,-421.311 898.811,-421.311 904.811,-427.311 904.811,-433.311 904.811,-433.311 904.811,-527.311 904.811,-527.311 904.811,-533.311 898.811,-539.311 892.811,-539.311 892.811,-539.311 742.935,-539.311 742.935,-539.311 736.935,-539.311 730.935,-533.311 730.935,-527.311 730.935,-527.311 730.935,-433.311 730.935,-433.311 730.935,-427.311 736.935,-421.311 742.935,-421.311"/>
<text text-anchor="middle" x="817.873" y="-524.111" font-family="Times,serif" font-size="14.00">PoolmembershipsController</text>
<polyline fill="none" stroke="black" points="730.935,-517.311 904.811,-517.311 "/>
<text text-anchor="start" x="738.935" y="-502.111" font-family="Times,serif" font-size="14.00">create</text>
<text text-anchor="start" x="738.935" y="-488.111" font-family="Times,serif" font-size="14.00">destroy</text>
<text text-anchor="start" x="738.935" y="-474.111" font-family="Times,serif" font-size="14.00">new</text>
<polyline fill="none" stroke="black" points="730.935,-467.311 904.811,-467.311 "/>
<polyline fill="none" stroke="black" points="730.935,-443.311 904.811,-443.311 "/>
<text text-anchor="start" x="738.935" y="-428.111" font-family="Times,serif" font-size="14.00">_layout</text>
</g>
<!-- ApplicationController&#45;&gt;PoolmembershipsController -->
<g id="edge7" class="edge"><title>ApplicationController&#45;&gt;PoolmembershipsController</title>
<path fill="none" stroke="black" d="M410.651,-602.683C495.548,-577.171 638.794,-534.125 730.789,-506.48"/>
</g>
<!-- PoolsController -->
<g id="node10" class="node"><title>PoolsController</title>
<path fill="none" stroke="black" d="M77.6633,-53.0094C77.6633,-53.0094 158.332,-53.0094 158.332,-53.0094 164.332,-53.0094 170.332,-59.0094 170.332,-65.0094 170.332,-65.0094 170.332,-243.009 170.332,-243.009 170.332,-249.009 164.332,-255.009 158.332,-255.009 158.332,-255.009 77.6633,-255.009 77.6633,-255.009 71.6633,-255.009 65.6633,-249.009 65.6633,-243.009 65.6633,-243.009 65.6633,-65.0094 65.6633,-65.0094 65.6633,-59.0094 71.6633,-53.0094 77.6633,-53.0094"/>
<text text-anchor="middle" x="117.998" y="-239.809" font-family="Times,serif" font-size="14.00">PoolsController</text>
<polyline fill="none" stroke="black" points="65.6633,-233.009 170.332,-233.009 "/>
<text text-anchor="start" x="73.6633" y="-217.809" font-family="Times,serif" font-size="14.00">create</text>
<text text-anchor="start" x="73.6633" y="-203.809" font-family="Times,serif" font-size="14.00">destroy</text>
<text text-anchor="start" x="73.6633" y="-189.809" font-family="Times,serif" font-size="14.00">edit</text>
<text text-anchor="start" x="73.6633" y="-175.809" font-family="Times,serif" font-size="14.00">index</text>
<text text-anchor="start" x="73.6633" y="-161.809" font-family="Times,serif" font-size="14.00">invite</text>
<text text-anchor="start" x="73.6633" y="-147.809" font-family="Times,serif" font-size="14.00">new</text>
<text text-anchor="start" x="73.6633" y="-133.809" font-family="Times,serif" font-size="14.00">show</text>
<text text-anchor="start" x="73.6633" y="-119.809" font-family="Times,serif" font-size="14.00">update</text>
<polyline fill="none" stroke="black" points="65.6633,-113.009 170.332,-113.009 "/>
<polyline fill="none" stroke="black" points="65.6633,-89.0094 170.332,-89.0094 "/>
<text text-anchor="start" x="73.6633" y="-73.8094" font-family="Times,serif" font-size="14.00">_layout</text>
<text text-anchor="start" x="73.6633" y="-59.8094" font-family="Times,serif" font-size="14.00">pool_params</text>
</g>
<!-- ApplicationController&#45;&gt;PoolsController -->
<g id="edge8" class="edge"><title>ApplicationController&#45;&gt;PoolsController</title>
<path fill="none" stroke="black" d="M287.432,-557.501C269.218,-532.895 249.737,-504.128 234.962,-476.101 197.716,-405.45 167.368,-320.321 146.927,-255.329"/>
</g>
<!-- PredictionsController -->
<g id="node11" class="node"><title>PredictionsController</title>
<path fill="none" stroke="black" d="M706.222,-0.5C706.222,-0.5 858.408,-0.5 858.408,-0.5 864.408,-0.5 870.408,-6.5 870.408,-12.5 870.408,-12.5 870.408,-302.5 870.408,-302.5 870.408,-308.5 864.408,-314.5 858.408,-314.5 858.408,-314.5 706.222,-314.5 706.222,-314.5 700.222,-314.5 694.222,-308.5 694.222,-302.5 694.222,-302.5 694.222,-12.5 694.222,-12.5 694.222,-6.5 700.222,-0.5 706.222,-0.5"/>
<text text-anchor="middle" x="782.315" y="-299.3" font-family="Times,serif" font-size="14.00">PredictionsController</text>
<polyline fill="none" stroke="black" points="694.222,-292.5 870.408,-292.5 "/>
<text text-anchor="start" x="702.222" y="-277.3" font-family="Times,serif" font-size="14.00">bonusvragen</text>
<text text-anchor="start" x="702.222" y="-263.3" font-family="Times,serif" font-size="14.00">create</text>
<text text-anchor="start" x="702.222" y="-249.3" font-family="Times,serif" font-size="14.00">create_multiple_predictions</text>
<text text-anchor="start" x="702.222" y="-235.3" font-family="Times,serif" font-size="14.00">edit</text>
<text text-anchor="start" x="702.222" y="-221.3" font-family="Times,serif" font-size="14.00">givepoints</text>
<text text-anchor="start" x="702.222" y="-207.3" font-family="Times,serif" font-size="14.00">givepoints2</text>
<text text-anchor="start" x="702.222" y="-193.3" font-family="Times,serif" font-size="14.00">index</text>
<text text-anchor="start" x="702.222" y="-179.3" font-family="Times,serif" font-size="14.00">knockoutfase</text>
<text text-anchor="start" x="702.222" y="-165.3" font-family="Times,serif" font-size="14.00">new</text>
<text text-anchor="start" x="702.222" y="-151.3" font-family="Times,serif" font-size="14.00">pointsscript</text>
<text text-anchor="start" x="702.222" y="-137.3" font-family="Times,serif" font-size="14.00">pointsscript2</text>
<text text-anchor="start" x="702.222" y="-123.3" font-family="Times,serif" font-size="14.00">pouleeindstanden</text>
<text text-anchor="start" x="702.222" y="-109.3" font-family="Times,serif" font-size="14.00">show</text>
<text text-anchor="start" x="702.222" y="-95.3" font-family="Times,serif" font-size="14.00">update</text>
<text text-anchor="start" x="702.222" y="-81.3" font-family="Times,serif" font-size="14.00">update_multiple_predictions</text>
<polyline fill="none" stroke="black" points="694.222,-74.5 870.408,-74.5 "/>
<polyline fill="none" stroke="black" points="694.222,-50.5 870.408,-50.5 "/>
<text text-anchor="start" x="702.222" y="-35.3" font-family="Times,serif" font-size="14.00">_layout</text>
<text text-anchor="start" x="702.222" y="-21.3" font-family="Times,serif" font-size="14.00">find_poolmembership</text>
<text text-anchor="start" x="702.222" y="-7.3" font-family="Times,serif" font-size="14.00">prediction_params</text>
</g>
<!-- ApplicationController&#45;&gt;PredictionsController -->
<g id="edge9" class="edge"><title>ApplicationController&#45;&gt;PredictionsController</title>
<path fill="none" stroke="black" d="M376.126,-557.571C422.714,-470.781 499.874,-328.234 509.217,-318.621 561.78,-264.538 636.297,-222.197 694.217,-194.519"/>
</g>
<!-- QuarterpredictionsController -->
<g id="node12" class="node"><title>QuarterpredictionsController</title>
<path fill="none" stroke="black" d="M250.162,-298.901C250.162,-298.901 404.666,-298.901 404.666,-298.901 410.666,-298.901 416.666,-304.901 416.666,-310.901 416.666,-310.901 416.666,-460.901 416.666,-460.901 416.666,-466.901 410.666,-472.901 404.666,-472.901 404.666,-472.901 250.162,-472.901 250.162,-472.901 244.162,-472.901 238.162,-466.901 238.162,-460.901 238.162,-460.901 238.162,-310.901 238.162,-310.901 238.162,-304.901 244.162,-298.901 250.162,-298.901"/>
<text text-anchor="middle" x="327.414" y="-457.701" font-family="Times,serif" font-size="14.00">QuarterpredictionsController</text>
<polyline fill="none" stroke="black" points="238.162,-450.901 416.666,-450.901 "/>
<text text-anchor="start" x="246.162" y="-435.701" font-family="Times,serif" font-size="14.00">create</text>
<text text-anchor="start" x="246.162" y="-421.701" font-family="Times,serif" font-size="14.00">edit</text>
<text text-anchor="start" x="246.162" y="-407.701" font-family="Times,serif" font-size="14.00">index</text>
<text text-anchor="start" x="246.162" y="-393.701" font-family="Times,serif" font-size="14.00">quarterteams</text>
<text text-anchor="start" x="246.162" y="-379.701" font-family="Times,serif" font-size="14.00">show</text>
<polyline fill="none" stroke="black" points="238.162,-372.901 416.666,-372.901 "/>
<polyline fill="none" stroke="black" points="238.162,-348.901 416.666,-348.901 "/>
<text text-anchor="start" x="246.162" y="-333.701" font-family="Times,serif" font-size="14.00">_layout</text>
<text text-anchor="start" x="246.162" y="-319.701" font-family="Times,serif" font-size="14.00">find_poolmembership</text>
<text text-anchor="start" x="246.162" y="-305.701" font-family="Times,serif" font-size="14.00">quarterprediction_params</text>
</g>
<!-- ApplicationController&#45;&gt;QuarterpredictionsController -->
<g id="edge10" class="edge"><title>ApplicationController&#45;&gt;QuarterpredictionsController</title>
<path fill="none" stroke="black" d="M337.045,-557.449C335.579,-531.339 333.875,-500.984 332.311,-473.129"/>
</g>
<!-- SemipredictionsController -->
<g id="node13" class="node"><title>SemipredictionsController</title>
<path fill="none" stroke="black" d="M12,-677.454C12,-677.454 152.531,-677.454 152.531,-677.454 158.531,-677.454 164.531,-683.454 164.531,-689.454 164.531,-689.454 164.531,-839.454 164.531,-839.454 164.531,-845.454 158.531,-851.454 152.531,-851.454 152.531,-851.454 12,-851.454 12,-851.454 6,-851.454 0,-845.454 0,-839.454 0,-839.454 0,-689.454 0,-689.454 0,-683.454 6,-677.454 12,-677.454"/>
<text text-anchor="middle" x="82.2656" y="-836.254" font-family="Times,serif" font-size="14.00">SemipredictionsController</text>
<polyline fill="none" stroke="black" points="0,-829.454 164.531,-829.454 "/>
<text text-anchor="start" x="8" y="-814.254" font-family="Times,serif" font-size="14.00">create</text>
<text text-anchor="start" x="8" y="-800.254" font-family="Times,serif" font-size="14.00">edit</text>
<text text-anchor="start" x="8" y="-786.254" font-family="Times,serif" font-size="14.00">index</text>
<text text-anchor="start" x="8" y="-772.254" font-family="Times,serif" font-size="14.00">semiteams</text>
<text text-anchor="start" x="8" y="-758.254" font-family="Times,serif" font-size="14.00">show</text>
<polyline fill="none" stroke="black" points="0,-751.454 164.531,-751.454 "/>
<polyline fill="none" stroke="black" points="0,-727.454 164.531,-727.454 "/>
<text text-anchor="start" x="8" y="-712.254" font-family="Times,serif" font-size="14.00">_layout</text>
<text text-anchor="start" x="8" y="-698.254" font-family="Times,serif" font-size="14.00">find_poolmembership</text>
<text text-anchor="start" x="8" y="-684.254" font-family="Times,serif" font-size="14.00">semiprediction_params</text>
</g>
<!-- ApplicationController&#45;&gt;SemipredictionsController -->
<g id="edge11" class="edge"><title>ApplicationController&#45;&gt;SemipredictionsController</title>
<path fill="none" stroke="black" d="M270.811,-661.779C238.065,-679.611 198.837,-700.973 164.663,-719.584"/>
</g>
<!-- SessionsController -->
<g id="node14" class="node"><title>SessionsController</title>
<path fill="none" stroke="black" d="M770.337,-714.666C770.337,-714.666 868.116,-714.666 868.116,-714.666 874.116,-714.666 880.116,-720.666 880.116,-726.666 880.116,-726.666 880.116,-820.666 880.116,-820.666 880.116,-826.666 874.116,-832.666 868.116,-832.666 868.116,-832.666 770.337,-832.666 770.337,-832.666 764.337,-832.666 758.337,-826.666 758.337,-820.666 758.337,-820.666 758.337,-726.666 758.337,-726.666 758.337,-720.666 764.337,-714.666 770.337,-714.666"/>
<text text-anchor="middle" x="819.226" y="-817.466" font-family="Times,serif" font-size="14.00">SessionsController</text>
<polyline fill="none" stroke="black" points="758.337,-810.666 880.116,-810.666 "/>
<text text-anchor="start" x="766.337" y="-795.466" font-family="Times,serif" font-size="14.00">create</text>
<text text-anchor="start" x="766.337" y="-781.466" font-family="Times,serif" font-size="14.00">destroy</text>
<text text-anchor="start" x="766.337" y="-767.466" font-family="Times,serif" font-size="14.00">new</text>
<polyline fill="none" stroke="black" points="758.337,-760.666 880.116,-760.666 "/>
<polyline fill="none" stroke="black" points="758.337,-736.666 880.116,-736.666 "/>
<text text-anchor="start" x="766.337" y="-721.466" font-family="Times,serif" font-size="14.00">_layout</text>
</g>
<!-- ApplicationController&#45;&gt;SessionsController -->
<g id="edge12" class="edge"><title>ApplicationController&#45;&gt;SessionsController</title>
<path fill="none" stroke="black" d="M410.993,-653.207C443.671,-666.404 483.247,-681.626 519.491,-693.512 601.002,-720.241 697.091,-744.733 758.078,-759.427"/>
</g>
<!-- TeampredictionsController -->
<g id="node15" class="node"><title>TeampredictionsController</title>
<path fill="none" stroke="black" d="M692.389,-995.133C692.389,-995.133 871.783,-995.133 871.783,-995.133 877.783,-995.133 883.783,-1001.13 883.783,-1007.13 883.783,-1007.13 883.783,-1185.13 883.783,-1185.13 883.783,-1191.13 877.783,-1197.13 871.783,-1197.13 871.783,-1197.13 692.389,-1197.13 692.389,-1197.13 686.389,-1197.13 680.389,-1191.13 680.389,-1185.13 680.389,-1185.13 680.389,-1007.13 680.389,-1007.13 680.389,-1001.13 686.389,-995.133 692.389,-995.133"/>
<text text-anchor="middle" x="782.086" y="-1181.93" font-family="Times,serif" font-size="14.00">TeampredictionsController</text>
<polyline fill="none" stroke="black" points="680.389,-1175.13 883.783,-1175.13 "/>
<text text-anchor="start" x="688.389" y="-1159.93" font-family="Times,serif" font-size="14.00">create_multiple_teampredictions</text>
<text text-anchor="start" x="688.389" y="-1145.93" font-family="Times,serif" font-size="14.00">edit</text>
<text text-anchor="start" x="688.389" y="-1131.93" font-family="Times,serif" font-size="14.00">index</text>
<text text-anchor="start" x="688.389" y="-1117.93" font-family="Times,serif" font-size="14.00">new</text>
<text text-anchor="start" x="688.389" y="-1103.93" font-family="Times,serif" font-size="14.00">show</text>
<text text-anchor="start" x="688.389" y="-1089.93" font-family="Times,serif" font-size="14.00">update</text>
<text text-anchor="start" x="688.389" y="-1075.93" font-family="Times,serif" font-size="14.00">update_multiple_teampredictions</text>
<polyline fill="none" stroke="black" points="680.389,-1069.13 883.783,-1069.13 "/>
<polyline fill="none" stroke="black" points="680.389,-1045.13 883.783,-1045.13 "/>
<text text-anchor="start" x="688.389" y="-1029.93" font-family="Times,serif" font-size="14.00">_layout</text>
<text text-anchor="start" x="688.389" y="-1015.93" font-family="Times,serif" font-size="14.00">find_teamprediction</text>
<text text-anchor="start" x="688.389" y="-1001.93" font-family="Times,serif" font-size="14.00">teamprediction_params</text>
</g>
<!-- ApplicationController&#45;&gt;TeampredictionsController -->
<g id="edge13" class="edge"><title>ApplicationController&#45;&gt;TeampredictionsController</title>
<path fill="none" stroke="black" d="M410.6,-651.036C503.187,-687.542 656.059,-748.768 665.351,-758.644 726.205,-823.33 755.507,-921.298 769.513,-995.045"/>
</g>
<!-- TeamsController -->
<g id="node16" class="node"><title>TeamsController</title>
<path fill="none" stroke="black" d="M402.758,-1023.88C402.758,-1023.88 488.643,-1023.88 488.643,-1023.88 494.643,-1023.88 500.643,-1029.88 500.643,-1035.88 500.643,-1035.88 500.643,-1213.88 500.643,-1213.88 500.643,-1219.88 494.643,-1225.88 488.643,-1225.88 488.643,-1225.88 402.758,-1225.88 402.758,-1225.88 396.758,-1225.88 390.758,-1219.88 390.758,-1213.88 390.758,-1213.88 390.758,-1035.88 390.758,-1035.88 390.758,-1029.88 396.758,-1023.88 402.758,-1023.88"/>
<text text-anchor="middle" x="445.7" y="-1210.68" font-family="Times,serif" font-size="14.00">TeamsController</text>
<polyline fill="none" stroke="black" points="390.758,-1203.88 500.643,-1203.88 "/>
<text text-anchor="start" x="398.758" y="-1188.68" font-family="Times,serif" font-size="14.00">create</text>
<text text-anchor="start" x="398.758" y="-1174.68" font-family="Times,serif" font-size="14.00">destroy</text>
<text text-anchor="start" x="398.758" y="-1160.68" font-family="Times,serif" font-size="14.00">edit</text>
<text text-anchor="start" x="398.758" y="-1146.68" font-family="Times,serif" font-size="14.00">index</text>
<text text-anchor="start" x="398.758" y="-1132.68" font-family="Times,serif" font-size="14.00">new</text>
<text text-anchor="start" x="398.758" y="-1118.68" font-family="Times,serif" font-size="14.00">toggle</text>
<text text-anchor="start" x="398.758" y="-1104.68" font-family="Times,serif" font-size="14.00">update</text>
<polyline fill="none" stroke="black" points="390.758,-1097.88 500.643,-1097.88 "/>
<polyline fill="none" stroke="black" points="390.758,-1073.88 500.643,-1073.88 "/>
<text text-anchor="start" x="398.758" y="-1058.68" font-family="Times,serif" font-size="14.00">_layout</text>
<text text-anchor="start" x="398.758" y="-1044.68" font-family="Times,serif" font-size="14.00">set_team</text>
<text text-anchor="start" x="398.758" y="-1030.68" font-family="Times,serif" font-size="14.00">team_params</text>
</g>
<!-- ApplicationController&#45;&gt;TeamsController -->
<g id="edge14" class="edge"><title>ApplicationController&#45;&gt;TeamsController</title>
<path fill="none" stroke="black" d="M356.066,-690.019C363.961,-724.673 373.634,-767.806 381.853,-806.458 397.273,-878.978 413.698,-961.013 426.027,-1023.65"/>
</g>
<!-- UsersController -->
<g id="node17" class="node"><title>UsersController</title>
<path fill="none" stroke="black" d="M524.417,-321.821C524.417,-321.821 605.845,-321.821 605.845,-321.821 611.845,-321.821 617.845,-327.821 617.845,-333.821 617.845,-333.821 617.845,-469.821 617.845,-469.821 617.845,-475.821 611.845,-481.821 605.845,-481.821 605.845,-481.821 524.417,-481.821 524.417,-481.821 518.417,-481.821 512.417,-475.821 512.417,-469.821 512.417,-469.821 512.417,-333.821 512.417,-333.821 512.417,-327.821 518.417,-321.821 524.417,-321.821"/>
<text text-anchor="middle" x="565.131" y="-466.621" font-family="Times,serif" font-size="14.00">UsersController</text>
<polyline fill="none" stroke="black" points="512.417,-459.821 617.845,-459.821 "/>
<text text-anchor="start" x="520.417" y="-444.621" font-family="Times,serif" font-size="14.00">create</text>
<text text-anchor="start" x="520.417" y="-430.621" font-family="Times,serif" font-size="14.00">dashboard</text>
<text text-anchor="start" x="520.417" y="-416.621" font-family="Times,serif" font-size="14.00">index</text>
<text text-anchor="start" x="520.417" y="-402.621" font-family="Times,serif" font-size="14.00">new</text>
<text text-anchor="start" x="520.417" y="-388.621" font-family="Times,serif" font-size="14.00">show</text>
<polyline fill="none" stroke="black" points="512.417,-381.821 617.845,-381.821 "/>
<polyline fill="none" stroke="black" points="512.417,-357.821 617.845,-357.821 "/>
<text text-anchor="start" x="520.417" y="-342.621" font-family="Times,serif" font-size="14.00">_layout</text>
<text text-anchor="start" x="520.417" y="-328.621" font-family="Times,serif" font-size="14.00">user_params</text>
</g>
<!-- ApplicationController&#45;&gt;UsersController -->
<g id="edge15" class="edge"><title>ApplicationController&#45;&gt;UsersController</title>
<path fill="none" stroke="black" d="M407.778,-557.419C441.222,-524.348 481.096,-484.919 512.336,-454.027"/>
</g>
</g>
</svg>
