<?xml version="1.0" encoding="UTF-8" standalone="no"?>
<!DOCTYPE svg PUBLIC "-//W3C//DTD SVG 1.1//EN"
 "http://www.w3.org/Graphics/SVG/1.1/DTD/svg11.dtd">
<!-- Generated by graphviz version 2.36.0 (20140111.2315)
 -->
<!-- Title: models_diagram Pages: 1 -->
<svg width="494pt" height="370pt"
 viewBox="0.00 0.00 494.00 370.00" xmlns="http://www.w3.org/2000/svg" xmlns:xlink="http://www.w3.org/1999/xlink">
<g id="graph0" class="graph" transform="scale(1 1) rotate(0) translate(4 366)">
<title>models_diagram</title>
<polygon fill="white" stroke="none" points="-4,4 -4,-366 490,-366 490,4 -4,4"/>
<!-- _diagram_info -->
<g id="node1" class="node"><title>_diagram_info</title>
<text text-anchor="start" x="7.31226" y="-347.1" font-family="Times,serif" font-size="13.00">Models diagram</text>
<text text-anchor="start" x="7.31226" y="-334.1" font-family="Times,serif" font-size="13.00">Date: Jun 12 2014 &#45; 12:08</text>
<text text-anchor="start" x="7.31226" y="-321.1" font-family="Times,serif" font-size="13.00">Migration version: 20140612092704</text>
<text text-anchor="start" x="7.31226" y="-308.1" font-family="Times,serif" font-size="13.00">Generated by RailRoady 1.1.1</text>
<text text-anchor="start" x="7.31226" y="-295.1" font-family="Times,serif" font-size="13.00">http://railroady.prestonlee.com</text>
</g>
<!-- Game -->
<g id="node2" class="node"><title>Game</title>
<ellipse fill="none" stroke="black" cx="365" cy="-234" rx="31.3343" ry="18"/>
<text text-anchor="middle" x="365" y="-229.8" font-family="Times,serif" font-size="14.00">Game</text>
</g>
<!-- Prediction -->
<g id="node5" class="node"><title>Prediction</title>
<ellipse fill="none" stroke="black" cx="216" cy="-18" rx="46.1851" ry="18"/>
<text text-anchor="middle" x="216" y="-13.8" font-family="Times,serif" font-size="14.00">Prediction</text>
</g>
<!-- Game&#45;&gt;Prediction -->
<g id="edge2" class="edge"><title>Game&#45;&gt;Prediction</title>
<path fill="none" stroke="#b6bca5" d="M368.906,-207.78C372.772,-173.405 374.352,-111.599 344,-72 325.836,-48.3022 295.189,-35.1247 268.437,-27.8369"/>
<ellipse fill="none" stroke="#b6bca5" cx="368.388" cy="-211.929" rx="4.00001" ry="4.00001"/>
<polygon fill="#b6bca5" stroke="#b6bca5" points="268.108,-27.7546 259.503,-20.9576 263.259,-26.5386 258.409,-25.3225 258.409,-25.3225 258.409,-25.3225 263.259,-26.5386 257.314,-29.6874 268.108,-27.7546 268.108,-27.7546"/>
</g>
<!-- Team -->
<g id="node6" class="node"><title>Team</title>
<ellipse fill="none" stroke="black" cx="421" cy="-162" rx="29.4297" ry="18"/>
<text text-anchor="middle" x="421" y="-157.8" font-family="Times,serif" font-size="14.00">Team</text>
</g>
<!-- Game&#45;&gt;Team -->
<g id="edge1" class="edge"><title>Game&#45;&gt;Team</title>
<path fill="none" stroke="#0168c0" d="M377.295,-209.621C383.265,-201.543 390.513,-192.532 397.428,-184.603"/>
<ellipse fill="none" stroke="#0168c0" cx="374.761" cy="-213.159" rx="4.00002" ry="4.00002"/>
<polygon fill="#0168c0" stroke="#0168c0" points="397.484,-184.541 407.518,-180.118 400.828,-180.824 404.173,-177.108 404.173,-177.108 404.173,-177.108 400.828,-180.824 400.828,-174.097 397.484,-184.541 397.484,-184.541"/>
</g>
<!-- Pool -->
<g id="node3" class="node"><title>Pool</title>
<ellipse fill="none" stroke="black" cx="251" cy="-234" rx="27" ry="18"/>
<text text-anchor="middle" x="251" y="-229.8" font-family="Times,serif" font-size="14.00">Pool</text>
</g>
<!-- Poolmembership -->
<g id="node4" class="node"><title>Poolmembership</title>
<ellipse fill="none" stroke="black" cx="265" cy="-90" rx="70.0631" ry="18"/>
<text text-anchor="middle" x="265" y="-85.8" font-family="Times,serif" font-size="14.00">Poolmembership</text>
</g>
<!-- Pool&#45;&gt;Poolmembership -->
<g id="edge4" class="edge"><title>Pool&#45;&gt;Poolmembership</title>
<path fill="none" stroke="#47ce88" d="M253.508,-207.558C255.984,-182.444 259.758,-144.164 262.299,-118.393"/>
<ellipse fill="none" stroke="#47ce88" cx="253.081" cy="-211.891" rx="4" ry="4"/>
<polygon fill="#47ce88" stroke="#47ce88" points="262.324,-118.141 267.784,-108.631 262.815,-113.165 263.305,-108.189 263.305,-108.189 263.305,-108.189 262.815,-113.165 258.827,-107.748 262.324,-118.141 262.324,-118.141"/>
</g>
<!-- User -->
<g id="node8" class="node"><title>User</title>
<ellipse fill="none" stroke="black" cx="198" cy="-162" rx="27" ry="18"/>
<text text-anchor="middle" x="198" y="-157.8" font-family="Times,serif" font-size="14.00">User</text>
</g>
<!-- Pool&#45;&gt;User -->
<g id="edge5" class="edge"><title>Pool&#45;&gt;User</title>
<path fill="none" stroke="#b86301" d="M233.085,-209.339C227.546,-202.023 221.445,-193.966 215.906,-186.65"/>
<polygon fill="#b86301" stroke="#b86301" points="233.201,-209.492 235.65,-220.181 236.219,-213.478 239.238,-217.465 239.238,-217.465 239.238,-217.465 236.219,-213.478 242.825,-214.748 233.201,-209.492 233.201,-209.492"/>
<polygon fill="#b86301" stroke="#b86301" points="215.766,-186.464 213.317,-175.775 212.748,-182.478 209.73,-178.492 209.73,-178.492 209.73,-178.492 212.748,-182.478 206.142,-181.208 215.766,-186.464 215.766,-186.464"/>
</g>
<!-- Poolmembership&#45;&gt;Prediction -->
<g id="edge7" class="edge"><title>Poolmembership&#45;&gt;Prediction</title>
<path fill="none" stroke="#e56838" d="M248.396,-65.28C243.629,-58.4704 238.416,-51.0228 233.592,-44.1312"/>
<ellipse fill="none" stroke="#e56838" cx="250.845" cy="-68.778" rx="4.00002" ry="4.00002"/>
<polygon fill="#e56838" stroke="#e56838" points="233.487,-43.9813 231.439,-33.2084 230.62,-39.8852 227.752,-35.789 227.752,-35.789 227.752,-35.789 230.62,-39.8852 224.066,-38.3696 233.487,-43.9813 233.487,-43.9813"/>
</g>
<!-- Teamprediction -->
<g id="node7" class="node"><title>Teamprediction</title>
<ellipse fill="none" stroke="black" cx="421" cy="-18" rx="65.2103" ry="18"/>
<text text-anchor="middle" x="421" y="-13.8" font-family="Times,serif" font-size="14.00">Teamprediction</text>
</g>
<!-- Poolmembership&#45;&gt;Teamprediction -->
<g id="edge8" class="edge"><title>Poolmembership&#45;&gt;Teamprediction</title>
<path fill="none" stroke="#54209a" d="M305.869,-70.6614C328.395,-60.5534 356.311,-48.027 379.013,-37.8405"/>
<ellipse fill="none" stroke="#54209a" cx="302.115" cy="-72.3456" rx="4.00002" ry="4.00002"/>
<polygon fill="#54209a" stroke="#54209a" points="379.268,-37.726 390.234,-37.7376 383.83,-35.679 388.392,-33.632 388.392,-33.632 388.392,-33.632 383.83,-35.679 386.549,-29.5264 379.268,-37.726 379.268,-37.726"/>
</g>
<!-- Team&#45;&gt;Game -->
<g id="edge11" class="edge"><title>Team&#45;&gt;Game</title>
<path fill="none" stroke="#c3b6f7" d="M408.55,-186.588C402.679,-194.519 395.594,-203.328 388.811,-211.122"/>
<ellipse fill="none" stroke="#c3b6f7" cx="411.226" cy="-182.856" rx="4.00002" ry="4.00002"/>
<polygon fill="#c3b6f7" stroke="#c3b6f7" points="388.565,-211.396 378.534,-215.827 385.223,-215.115 381.881,-218.834 381.881,-218.834 381.881,-218.834 385.223,-215.115 385.228,-221.842 388.565,-211.396 388.565,-211.396"/>
</g>
<!-- Team&#45;&gt;Teamprediction -->
<g id="edge12" class="edge"><title>Team&#45;&gt;Teamprediction</title>
<path fill="none" stroke="#7ae5c5" d="M421,-135.558C421,-110.444 421,-72.164 421,-46.3932"/>
<ellipse fill="none" stroke="#7ae5c5" cx="421" cy="-139.871" rx="4" ry="4"/>
<polygon fill="#7ae5c5" stroke="#7ae5c5" points="421,-46.1893 425.5,-36.1892 421,-41.1893 421,-36.1893 421,-36.1893 421,-36.1893 421,-41.1893 416.5,-36.1893 421,-46.1893 421,-46.1893"/>
</g>
<!-- User&#45;&gt;Poolmembership -->
<g id="edge15" class="edge"><title>User&#45;&gt;Poolmembership</title>
<path fill="none" stroke="#acee13" d="M217.507,-140.619C225.172,-132.611 234.029,-123.358 242.002,-115.028"/>
<ellipse fill="none" stroke="#acee13" cx="214.648" cy="-143.606" rx="4.00002" ry="4.00002"/>
<polygon fill="#acee13" stroke="#acee13" points="242.102,-114.923 252.268,-110.81 245.56,-111.311 249.017,-107.699 249.017,-107.699 249.017,-107.699 245.56,-111.311 245.766,-104.587 242.102,-114.923 242.102,-114.923"/>
</g>
<!-- User&#45;&gt;Prediction -->
<g id="edge16" class="edge"><title>User&#45;&gt;Prediction</title>
<path fill="none" stroke="#13e33f" d="M189.115,-134.612C184.384,-116.725 180.556,-92.6696 186,-72 188.531,-62.389 193.249,-52.6902 198.205,-44.264"/>
<polygon fill="#13e33f" stroke="#13e33f" points="189.156,-134.754 187.619,-145.612 190.549,-139.557 191.941,-144.359 191.941,-144.359 191.941,-144.359 190.549,-139.557 196.263,-143.105 189.156,-134.754 189.156,-134.754"/>
<polygon fill="#13e33f" stroke="#13e33f" points="198.272,-44.1565 207.398,-38.0752 200.929,-39.9205 203.585,-35.6845 203.585,-35.6845 203.585,-35.6845 200.929,-39.9205 199.773,-33.2937 198.272,-44.1565 198.272,-44.1565"/>
</g>
<!-- ActiveRecord::Base -->
<g id="node9" class="node"><title>ActiveRecord::Base</title>
<ellipse fill="none" stroke="black" cx="306" cy="-325" rx="80.9821" ry="18"/>
<text text-anchor="middle" x="306" y="-320.8" font-family="Times,serif" font-size="14.00">ActiveRecord::Base</text>
</g>
<!-- ActiveRecord::Base&#45;&gt;Game -->
<g id="edge3" class="edge"><title>ActiveRecord::Base&#45;&gt;Game</title>
<path fill="none" stroke="black" d="M317.376,-306.84C328.024,-290.777 343.817,-266.954 354.256,-251.208"/>
</g>
<!-- ActiveRecord::Base&#45;&gt;Pool -->
<g id="edge6" class="edge"><title>ActiveRecord::Base&#45;&gt;Pool</title>
<path fill="none" stroke="black" d="M295.395,-306.84C285.406,-290.676 270.562,-266.654 260.833,-250.911"/>
</g>
<!-- ActiveRecord::Base&#45;&gt;Poolmembership -->
<g id="edge9" class="edge"><title>ActiveRecord::Base&#45;&gt;Poolmembership</title>
<path fill="none" stroke="black" d="M302.985,-306.867C295.403,-263.778 275.606,-151.274 268.019,-108.158"/>
</g>
<!-- ActiveRecord::Base&#45;&gt;Prediction -->
<g id="edge10" class="edge"><title>ActiveRecord::Base&#45;&gt;Prediction</title>
<path fill="none" stroke="black" d="M274.294,-308.288C251.165,-295.593 220.271,-275.932 199,-252 175.099,-225.109 170.459,-214.969 162,-180 150.558,-132.702 160.121,-116.417 180,-72 185.907,-58.8013 195.098,-45.3402 202.715,-35.2869"/>
</g>
<!-- ActiveRecord::Base&#45;&gt;Team -->
<g id="edge13" class="edge"><title>ActiveRecord::Base&#45;&gt;Team</title>
<path fill="none" stroke="black" d="M339.303,-308.313C361.472,-296.105 389.31,-277.029 405,-252 418.842,-229.919 421.46,-199.053 421.59,-180.078"/>
</g>
<!-- ActiveRecord::Base&#45;&gt;Teamprediction -->
<g id="edge14" class="edge"><title>ActiveRecord::Base&#45;&gt;Teamprediction</title>
<path fill="none" stroke="black" d="M342.387,-308.901C368.172,-296.693 402.115,-277.371 425,-252 448.703,-225.722 451.257,-214.531 459,-180 470.814,-127.316 444.782,-65.1832 430.12,-35.8924"/>
</g>
<!-- ActiveRecord::Base&#45;&gt;User -->
<g id="edge17" class="edge"><title>ActiveRecord::Base&#45;&gt;User</title>
<path fill="none" stroke="black" d="M276.324,-308.17C255.838,-295.664 229.728,-276.289 215,-252 201.542,-229.806 198.37,-199.249 197.816,-180.329"/>
</g>
</g>
</svg>
